<svg width="200" height="181" viewBox="0 0 200 181" fill="none" xmlns="http://www.w3.org/2000/svg">
<path d="M140.785 32.4896L140.789 30.9853L140.822 19.6335C140.822 19.6333 140.822 19.633 140.822 19.6327C140.833 14.7904 138.96 10.2416 135.543 6.81308C132.122 3.38422 127.58 1.5 122.734 1.5H77.3193C67.3801 1.5 59.2655 9.5869 59.2311 19.5352C59.2311 19.5356 59.2311 19.536 59.2311 19.5363M140.785 32.4896L57.7311 19.5312L59.2311 19.5363M140.785 32.4896H142.289H171.5C186.425 32.4896 198.5 44.5691 198.5 59.4076V81.9219C195.753 87.9889 189.692 92.1564 182.583 92.1564H126.5V91.9067C126.5 77.3292 114.579 65.4067 100 65.4067C85.4213 65.4067 73.5 77.3292 73.5 91.9067V92.1564H17.4174C10.3075 92.1564 4.24717 87.9889 1.5 81.9219V59.4076C1.5 44.5691 13.5758 32.4896 28.4993 32.4896H57.7006H59.1966L59.2006 30.9936L59.2311 19.5363M140.785 32.4896L59.2311 19.5363M125.879 16.474L125.869 16.4638L125.859 16.4538C125.386 15.9871 124.337 15.1667 122.734 15.1667H77.3193C74.8844 15.1667 72.9042 17.1468 72.8978 19.5758C72.8978 19.576 72.8978 19.5761 72.8978 19.5763L72.8652 30.9853L72.8609 32.4896H74.3652H125.623H127.118L127.123 30.9939L127.155 19.5925V19.5882C127.155 17.9943 126.34 16.9468 125.879 16.474Z" stroke="#ABABAB" stroke-width="3"/>
<path d="M100 135.574C113.647 135.574 124.994 125.194 126.313 111.823H182.583C188.288 111.823 193.67 110.524 198.5 108.21V152.157C198.5 166.991 186.425 179.075 171.5 179.075H28.4993C13.5759 179.075 1.5 166.991 1.5 152.157V108.21C6.33054 110.524 11.7129 111.823 17.4174 111.823H73.6871C75.0064 125.194 86.3529 135.574 100 135.574Z" stroke="#ABABAB" stroke-width="3"/>
<path d="M106.833 91.91V109.106C106.833 112.883 103.774 115.939 99.9996 115.939C96.2255 115.939 93.1663 112.883 93.1663 109.106V91.91C93.1663 88.1328 96.2255 85.0767 99.9996 85.0767C103.774 85.0767 106.833 88.1328 106.833 91.91Z" stroke="#ABABAB" stroke-width="3"/>
</svg>
