<svg width="200" height="204" viewBox="0 0 200 204" fill="none" xmlns="http://www.w3.org/2000/svg">
<rect width="200" height="204" fill="black"/>
<path d="M122.09 159.182L121.373 159.471C116.217 161.547 112.098 163.127 108.997 164.225C108.997 164.225 108.996 164.225 108.996 164.225L108.495 162.812C105.431 163.9 101.867 164.444 97.8116 164.444C91.581 164.444 86.7302 162.889 83.2762 159.789C79.8222 156.689 78.1037 152.76 78.1037 147.985C78.1037 146.129 78.2307 144.229 78.4847 142.295L122.09 159.182ZM122.09 159.182L122.271 158.431L123.99 151.289L124.722 148.247L121.892 149.582C121.11 149.95 119.785 150.415 117.843 150.962C115.948 151.491 114.337 151.744 112.948 151.744C109.705 151.744 107.82 151.177 106.907 150.416L106.9 150.41C106.084 149.739 105.424 148.236 105.424 145.283C105.424 144.198 105.609 142.487 106.019 140.138C106.436 137.797 106.892 135.724 107.399 133.93L107.401 133.922L113.803 110.803C113.804 110.799 113.805 110.795 113.807 110.792C114.462 108.558 114.909 106.141 115.145 103.512C115.373 100.979 115.498 99.1365 115.498 98.0496C115.498 92.7911 113.659 88.4135 109.98 85.0593L109.975 85.0554C106.254 81.6897 101.073 80.0914 94.6455 80.0914C91.036 80.0914 87.239 80.7458 83.2622 82.0469C79.3669 83.3045 75.2909 84.8214 71.0432 86.5876L70.3369 86.8812L70.1598 87.6253L68.4582 94.775L67.7946 97.5636L70.464 96.5192C71.645 96.0572 73.105 95.5792 74.8361 95.0365C76.4518 94.5517 78.0137 94.3254 79.5175 94.3254C82.8618 94.3254 84.5979 94.9121 85.3555 95.6376C86.103 96.3707 86.6947 97.9205 86.6947 100.752C86.6947 102.299 86.5208 104.023 86.1472 105.929C85.7653 107.859 85.2824 109.942 84.7217 112.145L122.09 159.182ZM97.0184 65.239L97.0214 65.2419C100.319 68.3412 104.312 69.8972 108.885 69.8972C113.467 69.8972 117.436 68.3403 120.71 65.2376C123.99 62.1292 125.665 58.302 125.665 53.8474C125.665 49.4107 123.991 45.5695 120.717 42.4375C117.45 39.2953 113.468 37.7285 108.885 37.7285C104.309 37.7285 100.313 39.2956 97.0148 42.4332L97.0119 42.436C93.7419 45.5635 92.0365 49.4034 92.0365 53.8474C92.0365 58.2976 93.732 62.1331 97.0184 65.239ZM1.5 101.996C1.5 46.4704 45.6309 1.5 99.9958 1.5C154.361 1.5 198.5 46.4706 198.5 101.996C198.5 157.521 154.361 202.5 99.9958 202.5C45.6311 202.5 1.5 157.521 1.5 101.996Z" stroke="#ABABAB" stroke-width="3"/>
</svg>
