<svg width="220" height="180" viewBox="0 0 220 180" fill="none" xmlns="http://www.w3.org/2000/svg">
<path d="M214.843 51.8828L214.843 51.883C216.256 52.5886 217.412 53.5894 218.021 54.6797C218.592 55.7016 218.714 56.837 218.046 58.1251C217.364 59.4406 216.245 60.1901 214.492 61.2644L214.491 61.2649C183.066 80.5395 151.64 99.814 120.214 119.089C118.083 120.396 116.595 121.159 115.688 121.468L115.687 121.469C111.982 122.738 107.749 122.714 104.108 121.387L104.107 121.387C103.219 121.064 101.668 120.246 99.3833 118.844L99.3831 118.844C67.5625 99.3272 35.7438 79.8111 3.92693 60.2959L3.92593 60.2953C2.64405 59.5104 1.84072 58.3817 1.5 56.7994V56.0449C1.75996 54.9302 2.21154 54.1607 2.83534 53.5248C3.51981 52.8271 4.47024 52.2292 5.81103 51.5589L5.81122 51.5588C37.8173 35.55 69.8252 19.5432 101.835 3.53832C104.374 2.27158 106.279 1.7003 108.849 1.5H110.983C113.56 1.67431 115.517 2.21714 118.023 3.4699L214.843 51.8828Z" stroke="#ABABAB" stroke-width="3"/>
<path d="M204.153 151.641L204.151 151.646C203.929 152.119 203.572 152.475 203.302 152.71C203.012 152.962 202.686 153.191 202.399 153.382C202.261 153.474 202.064 153.602 201.89 153.715C201.767 153.794 201.656 153.865 201.585 153.912C201.334 154.078 201.189 154.185 201.114 154.252L201.112 154.254C194.783 159.937 197.793 170.232 206.174 171.532C210.18 172.152 214.377 170.019 216.261 166.511L217.582 167.22L216.261 166.511C218.918 161.564 217.213 156.03 212.342 153.009L212.341 153.008C211.968 152.777 211.514 152.452 211.195 151.933C210.86 151.386 210.789 150.815 210.789 150.314C210.789 128.304 210.784 106.293 210.774 84.2815V84.2809C210.774 84.1858 210.768 84.0762 210.755 83.9639C208.773 85.0783 207.119 86.0708 205.788 86.9424C204.784 87.6001 204.418 88.2424 204.418 89.1024L204.153 151.641ZM204.153 151.641C204.329 151.262 204.42 150.849 204.42 150.431L204.153 151.641ZM204.42 150.43C204.426 130.004 204.425 109.561 204.418 89.1028L204.42 150.43Z" stroke="#ABABAB" stroke-width="3"/>
<path d="M97.6271 179.023C101.152 179.306 104.105 179.491 106.484 179.58H113.69C130.196 179.075 146.674 175.923 161.887 169.428L97.6271 179.023ZM97.6271 179.023C84.0165 177.936 70.924 174.759 58.3496 169.493M97.6271 179.023L58.3496 169.493M161.298 168.048C169.395 164.588 177.081 160.048 183.394 154.009L183.394 154.009C187.439 150.14 190.858 145.293 191.961 139.981C192.185 138.904 192.312 137.315 192.314 135.162C192.323 121.931 192.337 108.701 192.356 95.4709V95.4689C192.36 94.1182 192.202 93.4754 192.092 93.2631L192.091 93.2614C191.964 93.0179 191.855 92.8836 191.783 92.8149C191.748 92.782 191.724 92.7663 191.713 92.7597C191.707 92.7563 191.704 92.7546 191.702 92.754L191.701 92.7533L191.7 92.7532L191.7 92.753L191.698 92.7527C191.696 92.7525 191.691 92.752 191.684 92.752C191.67 92.7519 191.641 92.7534 191.593 92.7642C191.493 92.7869 191.328 92.8471 191.092 92.9922L191.091 92.9925C169.062 106.501 147.025 119.998 124.98 133.484L124.98 133.484C117.027 138.349 106.736 138.742 98.3277 135.21L98.3267 135.21C97.0223 134.661 95.2833 133.709 93.1406 132.395L93.1401 132.395C72.4813 119.717 51.814 107.052 31.1382 94.3998L31.1381 94.3997C30.2096 93.8315 29.499 93.7383 29.0709 93.8399C28.7399 93.9185 28.2842 94.1813 27.9593 95.1696C27.7606 95.779 27.6899 96.2268 27.6899 96.5386V96.5392C27.6842 109.248 27.6813 121.957 27.6813 134.668C27.6842 138.249 27.8872 140.68 29.0344 143.389L29.0346 143.389C31.6474 149.562 36.9057 154.976 42.4482 158.955L42.4487 158.955C47.4633 162.557 52.9553 165.609 58.9287 168.11L58.929 168.11C71.3567 173.314 84.294 176.454 97.7466 177.528L97.7468 177.528C101.246 177.808 104.166 177.992 106.512 178.08H113.667M161.298 168.048L113.644 178.081C113.652 178.081 113.659 178.081 113.667 178.08M161.298 168.048C146.289 174.457 130.008 177.577 113.667 178.08M161.298 168.048L113.667 178.08M58.3496 169.493C52.2764 166.951 46.6844 163.844 41.5736 160.173M58.3496 169.493L41.5736 160.173M41.5736 160.173C35.9048 156.104 30.4123 150.492 27.6532 143.974L41.5736 160.173Z" stroke="#ABABAB" stroke-width="3"/>
</svg>
