<svg width="200" height="201" viewBox="0 0 200 201" fill="none" xmlns="http://www.w3.org/2000/svg">
<path d="M74.9999 164.677H125C127.622 164.677 129.75 166.805 129.75 169.444V181.978C129.75 191.52 122.007 199.278 112.5 199.278H87.4999C77.9927 199.278 70.2499 191.52 70.2499 181.978V169.444C70.2499 166.805 72.3777 164.677 74.9999 164.677Z" stroke="#ABABAB" stroke-width="3"/>
<path d="M119.862 75.4405C119.862 86.446 110.966 95.3607 100 95.3607C89.034 95.3607 80.1375 86.446 80.1375 75.4405C80.1375 64.435 89.034 55.5203 100 55.5203C110.966 55.5203 119.862 64.435 119.862 75.4405Z" stroke="#ABABAB" stroke-width="3"/>
<path d="M108.702 2.22923C141.46 6.03572 168.479 32.5158 172.826 65.2351C176.994 96.7051 161.739 126.357 133.872 140.851C131.294 142.184 129.75 144.84 129.75 147.698V149.722C128.219 149.335 126.621 149.143 125 149.143H75.0001C73.3794 149.143 71.781 149.335 70.2501 149.722V147.698C70.2501 144.817 68.625 142.181 66.1428 140.859L66.1363 140.856L66.1298 140.852C41.6903 128.139 26.5001 103.084 26.5001 75.4406C26.5001 54.4344 35.4434 34.411 51.0627 20.4072C66.6803 6.46751 87.6903 -0.227727 108.701 2.2291L108.702 2.22923ZM131.995 107.517L131.995 107.516C135.02 104.483 135.02 99.5694 131.995 96.536L129.86 94.3958C132.004 91.0097 133.582 87.236 134.483 83.2074H137.5C141.786 83.2074 145.251 79.7293 145.251 75.4406C145.251 71.1522 141.788 67.6737 137.501 67.6737H134.484C133.583 63.6452 132.005 59.8714 129.861 56.4853L131.996 54.3451L131.996 54.3449C135.021 51.3113 135.022 46.3981 131.996 43.3645C128.968 40.3292 124.061 40.329 121.034 43.3646L118.904 45.5003C115.528 43.3529 111.767 41.7718 107.751 40.8689V37.8386C107.751 33.5503 104.287 30.0717 100.001 30.0717C95.7141 30.0717 92.2507 33.5503 92.2507 37.8386V40.8689C88.2349 41.7718 84.4732 43.3529 81.0978 45.5003L78.9678 43.3646L78.9677 43.3645C75.9399 40.3294 71.033 40.3282 68.0053 43.3648C64.9805 46.3986 64.9803 51.3117 68.0055 54.3451L70.1399 56.4853C67.9962 59.8714 66.4183 63.6452 65.5176 67.6737H62.5001C58.2135 67.6737 54.7501 71.1522 54.7501 75.4406C54.7501 79.7289 58.2135 83.2074 62.5001 83.2074H65.5176C66.4183 87.236 67.9962 91.0097 70.1399 94.3958L68.0055 96.536L68.0053 96.5362C64.9805 99.57 64.9803 104.483 68.0055 107.517C69.5181 109.033 71.5043 109.793 73.4863 109.793C75.4684 109.793 77.4545 109.033 78.9672 107.517L81.0971 105.381C84.4726 107.528 88.2343 109.109 92.2501 110.012V113.043C92.2501 117.331 95.7135 120.809 100 120.809C104.287 120.809 107.75 117.331 107.75 113.043V110.012C111.766 109.109 115.528 107.528 118.903 105.381L121.033 107.517C122.546 109.033 124.532 109.793 126.514 109.793C128.496 109.793 130.482 109.033 131.995 107.517Z" stroke="#ABABAB" stroke-width="3"/>
<path d="M12.5 80.2076H6.25C3.62787 80.2076 1.5 78.0798 1.5 75.4407C1.5 72.8016 3.62787 70.6738 6.25 70.6738H12.5C15.1221 70.6738 17.25 72.8016 17.25 75.4407C17.25 78.0798 15.1221 80.2076 12.5 80.2076Z" stroke="#ABABAB" stroke-width="3"/>
<path d="M34.772 16.7732C35.7007 17.7044 36.9127 18.1686 38.1287 18.1686C39.3443 18.1686 40.5574 17.7043 41.4859 16.7733L34.772 16.7732ZM34.772 16.7732L30.3533 12.3425M34.772 16.7732L30.3533 12.3425M30.3533 12.3425C28.496 10.4802 28.4958 7.46195 30.3534 5.59883M30.3533 12.3425L30.3534 5.59883M30.3534 5.59883C32.2082 3.73852 35.2112 3.73852 37.0672 5.59896M30.3534 5.59883L37.0672 5.59896M37.0672 5.59896C37.0673 5.59901 37.0673 5.59905 37.0674 5.5991M37.0672 5.59896L37.0674 5.5991M37.0674 5.5991L41.486 10.0297C43.3432 11.8919 43.3435 14.9101 41.486 16.7732L37.0674 5.5991Z" stroke="#ABABAB" stroke-width="3"/>
<path d="M33.71 146.677C32.4939 146.677 31.282 146.212 30.3533 145.281C28.496 143.419 28.4958 140.401 30.3533 138.538C30.3533 138.538 30.3534 138.538 30.3534 138.538L34.772 134.107C36.6271 132.247 39.6303 132.247 41.4861 134.107C43.3437 135.969 43.3437 138.987 41.486 140.851C41.4859 140.851 41.4859 140.851 41.4859 140.851L37.0672 145.281C36.1387 146.212 34.9256 146.677 33.71 146.677Z" stroke="#ABABAB" stroke-width="3"/>
<path d="M193.75 80.2076H187.5C184.878 80.2076 182.75 78.0798 182.75 75.4407C182.75 72.8016 184.878 70.6738 187.5 70.6738H193.75C196.372 70.6738 198.5 72.8016 198.5 75.4407C198.5 78.0798 196.372 80.2076 193.75 80.2076Z" stroke="#ABABAB" stroke-width="3"/>
<path d="M161.871 18.1691C160.655 18.1691 159.443 17.7049 158.515 16.7737C156.657 14.9114 156.657 11.8933 158.515 10.0301C158.515 10.0301 158.515 10.0301 158.515 10.03L162.933 5.59946L161.871 4.54023L162.933 5.59946C164.788 3.73938 167.792 3.73919 169.647 5.59959C171.505 7.46166 171.505 10.4797 169.647 12.343C169.647 12.3431 169.647 12.3431 169.647 12.3431L165.229 16.7737C164.3 17.7047 163.087 18.1691 161.871 18.1691Z" stroke="#ABABAB" stroke-width="3"/>
<path d="M162.933 145.281C163.862 146.212 165.074 146.676 166.29 146.676C167.506 146.676 168.719 146.212 169.647 145.281L162.933 145.281ZM162.933 145.281L158.515 140.85M162.933 145.281L158.515 140.85M158.515 140.85C156.657 138.988 156.657 135.97 158.515 134.106M158.515 140.85L158.515 134.106M158.515 134.106C160.369 132.246 163.372 132.246 165.228 134.107M158.515 134.106L165.228 134.107M165.228 134.107C165.229 134.107 165.229 134.107 165.229 134.107M165.228 134.107L165.229 134.107M165.229 134.107L169.647 138.537C171.504 140.399 171.505 143.418 169.647 145.281L165.229 134.107Z" stroke="#ABABAB" stroke-width="3"/>
</svg>
